<svg width="46" height="46" viewBox="0 0 46 46" fill="none" xmlns="http://www.w3.org/2000/svg">
<g id="Icon" clip-path="url(#clip0_6_4261)">
<path id="Vector" d="M0.490234 31.085V12.815C0.490234 11.285 1.03023 9.96496 2.11023 8.85496C3.19023 7.74496 4.52523 7.18996 6.11523 7.18996H39.8652C41.4552 7.18996 42.7902 7.74496 43.8702 8.85496C44.9502 9.96496 45.4902 11.285 45.4902 12.815V31.085C45.4902 32.675 44.9502 34.01 43.8702 35.09C42.7902 36.17 41.4552 36.71 39.8652 36.71H6.11523C4.52523 36.71 3.19023 36.17 2.11023 35.09C1.03023 34.01 0.490234 32.675 0.490234 31.085ZM3.32523 31.085C3.32523 31.865 3.59523 32.525 4.13523 33.065C4.67523 33.605 5.33523 33.89 6.11523 33.92H39.8652C40.6152 33.92 41.2752 33.635 41.8452 33.065C42.4152 32.495 42.6852 31.835 42.6552 31.085L31.6752 22.85L25.5552 27.395C24.7752 27.995 23.9202 28.295 22.9902 28.295C22.0602 28.295 21.2052 27.995 20.4252 27.395L14.3052 22.85L3.32523 31.085ZM3.32523 29.33L13.1352 21.95L3.32523 14.57V29.33ZM3.32523 12.815L14.3052 21.095L15.5202 21.95L21.3252 26.36C21.8052 26.72 22.3602 26.9 22.9902 26.9C23.6202 26.9 24.1752 26.72 24.6552 26.36L42.6552 12.815C42.6552 12.065 42.3852 11.405 41.8452 10.835C41.3052 10.265 40.6452 9.99496 39.8652 10.025H6.11523C5.36523 10.025 4.70523 10.295 4.13523 10.835C3.56523 11.375 3.29523 12.035 3.32523 12.815ZM32.8452 21.95L42.6552 29.33V14.57L32.8452 21.95Z" fill="#4A8B71"/>
</g>
<defs>
<clipPath id="clip0_6_4261">
<rect width="45.02" height="45" fill="white" transform="matrix(1 0 0 -1 0.480469 45.1699)"/>
</clipPath>
</defs>
</svg>
