<svg width="34" height="46" viewBox="0 0 34 46" fill="none" xmlns="http://www.w3.org/2000/svg">
<g id="Icon" clip-path="url(#clip0_6_4253)">
<path id="Vector" d="M0.119141 17.0449C0.119141 12.3649 1.75414 8.37492 5.02414 5.07492C8.29414 1.77492 12.2841 0.139919 16.9941 0.169922C21.7041 0.199921 25.6941 1.83492 28.9641 5.07492C32.2341 8.31492 33.8691 12.3049 33.8691 17.0449C33.8691 19.3849 33.4491 21.7849 32.6091 24.2449C31.7691 26.7049 30.4941 29.1949 28.7841 31.7149C27.0741 34.2349 25.5591 36.3499 24.2391 38.0599C22.9191 39.7699 21.2691 41.7649 19.2891 44.0449C18.6891 44.7949 17.9541 45.1699 17.0841 45.1699H16.9041C16.0341 45.1699 15.2991 44.7949 14.6991 44.0449C12.7191 41.7349 11.0691 39.7399 9.74914 38.0599C8.42914 36.3799 6.91414 34.2649 5.20414 31.7149C3.49414 29.1649 2.21914 26.6749 1.37914 24.2449C0.539141 21.8149 0.119141 19.4149 0.119141 17.0449ZM2.95414 17.0449C2.95414 19.2049 3.37414 21.4549 4.21414 23.7949C5.05414 26.1349 6.32914 28.5499 8.03914 31.0399C9.74914 33.5299 11.1741 35.4499 12.3141 36.7999C13.4541 38.1499 14.9541 39.9499 16.8141 42.1999H16.9041C16.9641 42.2599 16.9941 42.3199 16.9941 42.3799L17.1741 42.1999C19.0341 40.0099 20.5341 38.2099 21.6741 36.7999C22.8141 35.3899 24.2241 33.4699 25.9041 31.0399C27.5841 28.6099 28.8741 26.1949 29.7741 23.7949C30.6741 21.3949 31.1091 19.1449 31.0791 17.0449C31.0791 13.1749 29.6991 9.85992 26.9391 7.09992C24.1791 4.33992 20.8641 2.97492 16.9941 3.00492C13.1241 3.03492 9.80914 4.39992 7.04914 7.09992C4.28914 9.79992 2.92414 13.1149 2.95414 17.0449ZM8.57914 16.6849C8.57914 14.3449 9.38914 12.3499 11.0091 10.6999C12.6291 9.04992 14.6241 8.23992 16.9941 8.26992C19.3641 8.29992 21.3591 9.10992 22.9791 10.6999C24.5991 12.2899 25.4241 14.2849 25.4541 16.6849C25.4841 19.0849 24.6591 21.0799 22.9791 22.6699C21.2991 24.2599 19.3041 25.0849 16.9941 25.1449C14.6841 25.2049 12.6891 24.3799 11.0091 22.6699C9.32914 20.9599 8.51914 18.9649 8.57914 16.6849ZM9.97414 16.6849C9.97414 18.6349 10.6641 20.2999 12.0441 21.6799C13.4241 23.0599 15.0741 23.7349 16.9941 23.7049C18.9141 23.6749 20.5641 22.9999 21.9441 21.6799C23.3241 20.3599 24.0141 18.6949 24.0141 16.6849C24.0141 14.6749 23.3241 13.0249 21.9441 11.7349C20.5641 10.4449 18.9141 9.75492 16.9941 9.66492C15.0741 9.57492 13.4241 10.2649 12.0441 11.7349C10.6641 13.2049 9.97414 14.8549 9.97414 16.6849Z" fill="#4A8B71"/>
</g>
<defs>
<clipPath id="clip0_6_4253">
<rect width="33.77" height="45" fill="white" transform="matrix(1 0 0 -1 0.109375 45.1699)"/>
</clipPath>
</defs>
</svg>
