<svg width="46" height="46" viewBox="0 0 46 46" fill="none" xmlns="http://www.w3.org/2000/svg">
<g id="Icon" clip-path="url(#clip0_6_4257)">
<path id="Vector" d="M35.9513 28.0249C35.0513 27.0649 33.9938 26.5849 32.7788 26.5849C31.5638 26.5849 30.4763 27.0649 29.5163 28.0249L26.5013 31.0399L25.7813 30.6349C25.2413 30.3649 24.9263 30.1999 24.8363 30.1399C22.0163 28.3099 19.4063 25.9399 17.0063 23.0299C15.8363 21.4999 14.9813 20.1499 14.4413 18.9799C15.1613 18.3499 15.8963 17.6299 16.6463 16.8199L17.4563 16.0099C18.4463 14.9899 18.9413 13.8874 18.9413 12.7024C18.9413 11.5174 18.4463 10.4299 17.4563 9.43992L14.8463 6.82992C14.4563 6.43992 14.1713 6.13992 13.9913 5.92992C13.0013 4.93992 12.4013 4.35492 12.1913 4.17492C11.2613 3.24492 10.2113 2.77991 9.04128 2.77991C7.87128 2.77991 6.79128 3.24492 5.80128 4.17492H5.75628L2.51628 7.45992C1.31628 8.65992 0.64128 10.1299 0.49128 11.8699C0.28128 13.8799 0.686281 16.2199 1.70628 18.8899C2.45628 20.9599 3.42378 22.9849 4.60878 24.9649C5.79378 26.9449 7.24128 28.9699 8.95128 31.0399C13.1513 36.0199 18.1163 39.9049 23.8463 42.6949C26.9363 44.1649 29.7263 44.9899 32.2163 45.1699H32.8013C35.0213 45.1699 36.8513 44.3899 38.2913 42.8299V42.7849C38.5013 42.5149 38.7713 42.2149 39.1013 41.8849C38.9213 42.0649 39.2063 41.7799 39.9563 41.0299C40.3463 40.6999 40.7663 40.2949 41.2163 39.8149C42.1763 38.7949 42.6563 37.6849 42.6563 36.4849C42.6563 35.2849 42.1613 34.2199 41.1713 33.2899L35.9513 28.0249ZM39.3713 38.0599C39.2213 38.2099 39.0263 38.4049 38.7863 38.6449L38.2013 39.2299C37.5113 39.8599 36.8963 40.4899 36.3563 41.1199C35.4563 42.1099 34.2713 42.6049 32.8013 42.6049H32.3513C30.1613 42.4549 27.7013 41.7199 24.9713 40.3999C19.5413 37.7599 14.8613 34.0999 10.9313 29.4199C9.31128 27.4699 7.94628 25.5724 6.83628 23.7274C5.72628 21.8824 4.81128 19.9849 4.09128 18.0349C3.64128 16.8049 3.33378 15.7174 3.16878 14.7724C3.00378 13.8274 2.96628 12.9199 3.05628 12.0499C3.14628 10.9099 3.58128 9.97992 4.36128 9.25992L7.60128 6.01992C8.05128 5.56992 8.52378 5.34492 9.01878 5.34492C9.51378 5.34492 9.98628 5.56992 10.4363 6.01992C10.6763 6.22992 10.9613 6.51492 11.2913 6.87492L12.5963 8.17992C12.7763 8.35992 12.9263 8.50992 13.0463 8.62992L15.6563 11.2399C16.6463 12.1999 16.6463 13.1749 15.6563 14.1649C15.4763 14.3749 15.2063 14.6599 14.8463 15.0199C13.7963 16.0699 13.0013 16.8349 12.4613 17.3149L12.4163 17.3599C11.8163 17.9599 11.6513 18.6799 11.9213 19.5199V19.6099C12.5813 21.1699 13.6163 22.8349 15.0263 24.6049C17.6363 27.8449 20.4413 30.4099 23.4413 32.2999L24.6113 32.9299C25.1513 33.1999 25.4663 33.3649 25.5563 33.4249L25.6913 33.5149C26.0513 33.6649 26.3513 33.7399 26.5913 33.7399C27.1313 33.7399 27.6263 33.5149 28.0763 33.0649L31.3163 29.8249C31.7963 29.3449 32.2613 29.1049 32.7113 29.1049C33.1613 29.1049 33.6263 29.3449 34.1063 29.8249L39.3713 35.0899C40.3313 36.0199 40.3313 37.0099 39.3713 38.0599ZM24.7013 10.8799C27.2513 11.2999 29.4338 12.4174 31.2488 14.2324C33.0638 16.0474 34.2113 18.2449 34.6913 20.8249C34.7213 21.1249 34.8563 21.3799 35.0963 21.5899C35.3363 21.7999 35.6213 21.9049 35.9513 21.9049L36.1763 21.8599C36.5063 21.7999 36.7763 21.6274 36.9863 21.3424C37.1963 21.0574 37.2713 20.7349 37.2113 20.3749C36.9713 18.8749 36.4988 17.4499 35.7938 16.0999C35.0888 14.7499 34.1963 13.5349 33.1163 12.4549C32.0363 11.3749 30.8138 10.4824 29.4488 9.77742C28.0838 9.07242 26.6513 8.59992 25.1513 8.35992C24.8213 8.29992 24.5063 8.36742 24.2063 8.56242C23.9063 8.75742 23.7263 9.03492 23.6663 9.39492C23.6063 9.75492 23.6738 10.0774 23.8688 10.3624C24.0638 10.6474 24.3413 10.8199 24.7013 10.8799ZM45.3563 20.0149C44.9363 17.5249 44.1488 15.1774 42.9938 12.9724C41.8388 10.7674 40.3613 8.76492 38.5613 6.96492C36.7613 5.16492 34.7588 3.68742 32.5538 2.53242C30.3488 1.37741 28.0013 0.589916 25.5113 0.169918C25.1813 0.109917 24.8663 0.184917 24.5663 0.394917C24.2663 0.604916 24.0863 0.882416 24.0263 1.22742C23.9663 1.57242 24.0413 1.89492 24.2513 2.19492C24.4613 2.49492 24.7463 2.67492 25.1063 2.73492C27.2963 3.09492 29.3888 3.79242 31.3838 4.82742C33.3788 5.86242 35.1788 7.17492 36.7838 8.76492C38.3888 10.3549 39.7013 12.1399 40.7213 14.1199C41.7413 16.0999 42.4463 18.1999 42.8363 20.4199C42.8663 20.7199 43.0013 20.9749 43.2413 21.1849C43.4813 21.3949 43.7663 21.4999 44.0963 21.4999H44.3213C44.6513 21.4399 44.9213 21.2599 45.1313 20.9599C45.3413 20.6599 45.4163 20.3449 45.3563 20.0149Z" fill="#4A8B71"/>
</g>
<defs>
<clipPath id="clip0_6_4257">
<rect width="45.02" height="45" fill="white" transform="matrix(1 0 0 -1 0.480469 45.1699)"/>
</clipPath>
</defs>
</svg>
