<svg width="13" height="17" viewBox="0 0 13 17" fill="none" xmlns="http://www.w3.org/2000/svg">
<g id="Address" clip-path="url(#clip0_6_2606)">
<path id="Vector" d="M0 6.375C0 4.607 0.617667 3.09967 1.853 1.853C3.08833 0.606333 4.59567 -0.0113335 6.375 0C8.15433 0.0113316 9.66167 0.629 10.897 1.853C12.1323 3.077 12.75 4.58433 12.75 6.375C12.75 7.259 12.5913 8.16567 12.274 9.095C11.9567 10.0243 11.475 10.965 10.829 11.917C10.183 12.869 9.61067 13.668 9.112 14.314C8.61333 14.96 7.99 15.7137 7.242 16.575C7.01533 16.8583 6.73767 17 6.409 17H6.341C6.01233 17 5.73467 16.8583 5.508 16.575C4.76 15.7023 4.13667 14.9487 3.638 14.314C3.13933 13.6793 2.567 12.8803 1.921 11.917C1.275 10.9537 0.793333 10.013 0.476 9.095C0.158667 8.177 0 7.27033 0 6.375ZM1.071 6.375C1.071 7.191 1.22967 8.041 1.547 8.925C1.86433 9.809 2.346 10.7213 2.992 11.662C3.638 12.6027 4.17633 13.328 4.607 13.838C5.03767 14.348 5.60433 15.028 6.307 15.878H6.341C6.36367 15.9007 6.375 15.9233 6.375 15.946L6.443 15.878C7.14567 15.0507 7.71233 14.3707 8.143 13.838C8.57367 13.3053 9.10633 12.58 9.741 11.662C10.3757 10.744 10.863 9.83167 11.203 8.925C11.543 8.01833 11.7073 7.16833 11.696 6.375C11.696 4.913 11.1747 3.66067 10.132 2.618C9.08933 1.57533 7.837 1.05967 6.375 1.071C4.913 1.08233 3.66067 1.598 2.618 2.618C1.57533 3.638 1.05967 4.89033 1.071 6.375ZM3.196 6.239C3.196 5.355 3.502 4.60133 4.114 3.978C4.726 3.35467 5.47967 3.04867 6.375 3.06C7.27033 3.07133 8.024 3.37733 8.636 3.978C9.248 4.57867 9.55967 5.33233 9.571 6.239C9.58233 7.14567 9.27067 7.89933 8.636 8.5C8.00133 9.10067 7.24767 9.41233 6.375 9.435C5.50233 9.45767 4.74867 9.146 4.114 8.5C3.47933 7.854 3.17333 7.10033 3.196 6.239ZM3.723 6.239C3.723 6.97567 3.98367 7.60467 4.505 8.126C5.02633 8.64733 5.64967 8.90233 6.375 8.891C7.10033 8.87967 7.72367 8.62467 8.245 8.126C8.76633 7.62733 9.027 6.99833 9.027 6.239C9.027 5.47967 8.76633 4.85633 8.245 4.369C7.72367 3.88167 7.10033 3.621 6.375 3.587C5.64967 3.553 5.02633 3.81367 4.505 4.369C3.98367 4.92433 3.723 5.54767 3.723 6.239Z" fill="white"/>
</g>
<defs>
<clipPath id="clip0_6_2606">
<rect width="12.75" height="17" fill="white" transform="matrix(1 0 0 -1 0 17)"/>
</clipPath>
</defs>
</svg>
