<svg width="17" height="17" viewBox="0 0 17 17" fill="none" xmlns="http://www.w3.org/2000/svg">
<g id="Address" clip-path="url(#clip0_6_2608)">
<path id="Vector" d="M13.3961 10.523C13.0561 10.1603 12.6566 9.979 12.1976 9.979C11.7386 9.979 11.3277 10.1603 10.9651 10.523L9.82605 11.662L9.55405 11.509C9.35005 11.407 9.23105 11.3447 9.19705 11.322C8.13172 10.6307 7.14572 9.73533 6.23905 8.636C5.79705 8.058 5.47405 7.548 5.27005 7.106C5.54205 6.868 5.81972 6.596 6.10305 6.29L6.40905 5.984C6.78305 5.59867 6.97005 5.18217 6.97005 4.7345C6.97005 4.28683 6.78305 3.876 6.40905 3.502L5.42305 2.516C5.27572 2.36867 5.16805 2.25533 5.10005 2.176C4.72605 1.802 4.49939 1.581 4.42005 1.513C4.06872 1.16167 3.67205 0.986 3.23005 0.986C2.78805 0.986 2.38005 1.16167 2.00605 1.513H1.98905L0.765053 2.754C0.31172 3.20733 0.0567201 3.76267 5.3402e-05 4.42C-0.0792799 5.17933 0.0737201 6.06333 0.459053 7.072C0.742387 7.854 1.10789 8.619 1.55555 9.367C2.00322 10.115 2.55005 10.88 3.19605 11.662C4.78272 13.5433 6.65839 15.011 8.82305 16.065C9.99039 16.6203 11.0444 16.932 11.9851 17H12.2061C13.0447 17 13.7361 16.7053 14.2801 16.116V16.099C14.3594 15.997 14.4614 15.8837 14.5861 15.759C14.5181 15.827 14.6257 15.7193 14.9091 15.436C15.0564 15.3113 15.2151 15.1583 15.3851 14.977C15.7477 14.5917 15.9291 14.1723 15.9291 13.719C15.9291 13.2657 15.7421 12.8633 15.3681 12.512L13.3961 10.523ZM14.6881 14.314C14.6314 14.3707 14.5577 14.4443 14.4671 14.535L14.2461 14.756C13.9854 14.994 13.7531 15.232 13.5491 15.47C13.2091 15.844 12.7614 16.031 12.2061 16.031H12.0361C11.2087 15.9743 10.2794 15.6967 9.24805 15.198C7.19672 14.2007 5.42872 12.818 3.94405 11.05C3.33205 10.3133 2.81639 9.5965 2.39705 8.8995C1.97772 8.2025 1.63205 7.48567 1.36005 6.749C1.19005 6.28433 1.07389 5.8735 1.01155 5.5165C0.94922 5.1595 0.935053 4.81667 0.969053 4.488C1.00305 4.05733 1.16739 3.706 1.46205 3.434L2.68605 2.21C2.85605 2.04 3.03455 1.955 3.22155 1.955C3.40855 1.955 3.58705 2.04 3.75705 2.21C3.84772 2.28933 3.95539 2.397 4.08005 2.533L4.57305 3.026C4.64105 3.094 4.69772 3.15067 4.74305 3.196L5.72905 4.182C6.10305 4.54467 6.10305 4.913 5.72905 5.287C5.66105 5.36633 5.55905 5.474 5.42305 5.61C5.02639 6.00667 4.72605 6.29567 4.52205 6.477L4.50505 6.494C4.27839 6.72067 4.21605 6.99267 4.31805 7.31V7.344C4.56739 7.93333 4.95839 8.56233 5.49105 9.231C6.47705 10.455 7.53672 11.424 8.67005 12.138L9.11205 12.376C9.31605 12.478 9.43505 12.5403 9.46905 12.563L9.52005 12.597C9.65605 12.6537 9.76939 12.682 9.86005 12.682C10.0641 12.682 10.2511 12.597 10.4211 12.427L11.6451 11.203C11.8264 11.0217 12.0021 10.931 12.1721 10.931C12.3421 10.931 12.5177 11.0217 12.6991 11.203L14.6881 13.192C15.0507 13.5433 15.0507 13.9173 14.6881 14.314ZM9.14605 4.046C10.1094 4.20467 10.9339 4.62683 11.6196 5.3125C12.3052 5.99817 12.7387 6.82833 12.9201 7.803C12.9314 7.91633 12.9824 8.01267 13.0731 8.092C13.1637 8.17133 13.2714 8.211 13.3961 8.211L13.4811 8.194C13.6057 8.17133 13.7077 8.10617 13.7871 7.9985C13.8664 7.89083 13.8947 7.769 13.8721 7.633C13.7814 7.06633 13.6029 6.528 13.3366 6.018C13.0702 5.508 12.7331 5.049 12.3251 4.641C11.9171 4.233 11.4552 3.89583 10.9396 3.6295C10.4239 3.36317 9.88272 3.18467 9.31605 3.094C9.19139 3.07133 9.07239 3.09683 8.95905 3.1705C8.84572 3.24417 8.77772 3.349 8.75505 3.485C8.73239 3.621 8.75789 3.74283 8.83155 3.8505C8.90522 3.95817 9.01005 4.02333 9.14605 4.046ZM16.9491 7.497C16.7904 6.55633 16.4929 5.6695 16.0566 4.8365C15.6202 4.0035 15.0621 3.247 14.3821 2.567C13.7021 1.887 12.9456 1.32883 12.1126 0.8925C11.2796 0.456165 10.3927 0.158667 9.45205 0C9.32739 -0.0226669 9.20839 0.00566483 9.09505 0.0849991C8.98172 0.164333 8.91372 0.269165 8.89105 0.3995C8.86839 0.529833 8.89672 0.651667 8.97605 0.764999C9.05539 0.878332 9.16305 0.946333 9.29905 0.969C10.1264 1.105 10.9169 1.3685 11.6706 1.7595C12.4242 2.1505 13.1042 2.64633 13.7106 3.247C14.3169 3.84767 14.8127 4.522 15.1981 5.27C15.5834 6.018 15.8497 6.81133 15.9971 7.65C16.0084 7.76333 16.0594 7.85967 16.1501 7.939C16.2407 8.01833 16.3484 8.058 16.4731 8.058H16.5581C16.6827 8.03533 16.7847 7.96733 16.8641 7.854C16.9434 7.74067 16.9717 7.62167 16.9491 7.497Z" fill="white"/>
</g>
<defs>
<clipPath id="clip0_6_2608">
<rect width="17" height="17" fill="white" transform="matrix(1 0 0 -1 0 17)"/>
</clipPath>
</defs>
</svg>
