<svg width="14" height="17" viewBox="0 0 14 17" fill="none" xmlns="http://www.w3.org/2000/svg">
<g id="Address" clip-path="url(#clip0_6_2710)">
<path id="Vector" d="M0.285645 6.3751C0.285645 4.60711 0.950025 3.09979 2.27879 1.85314C3.60755 0.606482 5.22888 -0.011179 7.14279 0.000154495C9.05669 0.0114861 10.678 0.629148 12.0068 1.85314C13.3355 3.07713 13.9999 4.58445 13.9999 6.3751C13.9999 7.25909 13.8293 8.16575 13.4879 9.09507C13.1466 10.0244 12.6285 10.9651 11.9336 11.917C11.2388 12.869 10.6232 13.668 10.0868 14.314C9.55041 14.96 8.87993 15.7137 8.07536 16.575C7.83155 16.8583 7.53288 17 7.17936 17H7.10622C6.75269 17 6.45403 16.8583 6.21022 16.575C5.40564 15.7023 4.73517 14.9487 4.19879 14.314C3.66241 13.6794 3.04679 12.8804 2.35193 11.917C1.65707 10.9537 1.13898 10.0131 0.797644 9.09507C0.456311 8.17708 0.285645 7.27042 0.285645 6.3751ZM1.43764 6.3751C1.43764 7.19109 1.60831 8.04108 1.94964 8.92507C2.29098 9.80906 2.80907 10.7214 3.50393 11.662C4.19879 12.6027 4.77783 13.328 5.24107 13.838C5.70431 14.348 6.31384 15.028 7.06964 15.878H7.10622C7.1306 15.9007 7.14279 15.9233 7.14279 15.946L7.21593 15.878C7.97174 15.0507 8.58126 14.3707 9.0445 13.838C9.50774 13.3054 10.0807 12.58 10.7634 11.662C11.446 10.7441 11.9702 9.83173 12.3359 8.92507C12.7016 8.01841 12.8784 7.16842 12.8662 6.3751C12.8662 4.91311 12.3055 3.66079 11.1839 2.61813C10.0624 1.57547 8.71536 1.05981 7.14279 1.07114C5.57022 1.08248 4.22317 1.59814 3.10164 2.61813C1.98012 3.63812 1.42545 4.89044 1.43764 6.3751ZM3.72336 6.2391C3.72336 5.35511 4.0525 4.60145 4.71079 3.97812C5.36907 3.35479 6.17974 3.04879 7.14279 3.06013C8.10583 3.07146 8.9165 3.37746 9.57479 3.97812C10.2331 4.57878 10.5683 5.33244 10.5805 6.2391C10.5927 7.14576 10.2575 7.89942 9.57479 8.50008C8.89212 9.10074 8.08145 9.4124 7.14279 9.43507C6.20412 9.45774 5.39345 9.14607 4.71079 8.50008C4.02812 7.85408 3.69898 7.10042 3.72336 6.2391ZM4.29022 6.2391C4.29022 6.97576 4.5706 7.60475 5.13136 8.12608C5.69212 8.64741 6.3626 8.90241 7.14279 8.89107C7.92298 8.87974 8.59345 8.62474 9.15422 8.12608C9.71498 7.62742 9.99536 6.99842 9.99536 6.2391C9.99536 5.47977 9.71498 4.85644 9.15422 4.36911C8.59345 3.88179 7.92298 3.62112 7.14279 3.58712C6.3626 3.55312 5.69212 3.81379 5.13136 4.36911C4.5706 4.92444 4.29022 5.54777 4.29022 6.2391Z" fill="#282828"/>
</g>
<defs>
<clipPath id="clip0_6_2710">
<rect width="14" height="17" fill="white" transform="matrix(1 0 0 -1 0 17)"/>
</clipPath>
</defs>
</svg>
