<svg width="17" height="17" viewBox="0 0 17 17" fill="none" xmlns="http://www.w3.org/2000/svg">
<g id="Address" clip-path="url(#clip0_6_2716)">
<path id="Vector" d="M0 11.679V4.77695C0 4.19895 0.204 3.70029 0.612 3.28095C1.02 2.86162 1.52433 2.65195 2.125 2.65195H14.875C15.4757 2.65195 15.98 2.86162 16.388 3.28095C16.796 3.70029 17 4.19895 17 4.77695V11.679C17 12.2796 16.796 12.784 16.388 13.192C15.98 13.6 15.4757 13.804 14.875 13.804H2.125C1.52433 13.804 1.02 13.6 0.612 13.192C0.204 12.784 0 12.2796 0 11.679ZM1.071 11.679C1.071 11.9736 1.173 12.223 1.377 12.427C1.581 12.631 1.83033 12.7386 2.125 12.75H14.875C15.1583 12.75 15.4077 12.6423 15.623 12.427C15.8383 12.2116 15.9403 11.9623 15.929 11.679L11.781 8.56796L9.469 10.285C9.17433 10.5116 8.85133 10.625 8.5 10.625C8.14867 10.625 7.82567 10.5116 7.531 10.285L5.219 8.56796L1.071 11.679ZM1.071 11.016L4.777 8.22795L1.071 5.43995V11.016ZM1.071 4.77695L5.219 7.90495L5.678 8.22795L7.871 9.89395C8.05233 10.03 8.262 10.098 8.5 10.098C8.738 10.098 8.94767 10.03 9.129 9.89395L15.929 4.77695C15.929 4.49362 15.827 4.24429 15.623 4.02895C15.419 3.81362 15.1697 3.71162 14.875 3.72295H2.125C1.84167 3.72295 1.59233 3.82495 1.377 4.02895C1.16167 4.23295 1.05967 4.48229 1.071 4.77695ZM12.223 8.22795L15.929 11.016V5.43995L12.223 8.22795Z" fill="#333333"/>
</g>
<defs>
<clipPath id="clip0_6_2716">
<rect width="17" height="17" fill="white" transform="matrix(1 0 0 -1 0 17)"/>
</clipPath>
</defs>
</svg>
